<svg width="30" height="30" viewBox="0 0 100 100" fill="none" xmlns="http://www.w3.org/2000/svg">
<g clip-path="url(#clip0_108_491)">
<mask id="mask0_108_491" style="mask-type:luminance" maskUnits="userSpaceOnUse" x="0" y="0" width="100" height="100">
<path d="M100 0H0V100H100V0Z" fill="white"/>
</mask>
<g mask="url(#mask0_108_491)">
<path fill-rule="evenodd" clip-rule="evenodd" d="M4.51733 66.4394H7.50725V54.5952L12.176 64.9216C12.705 66.1635 13.4638 66.6234 14.9358 66.6234C16.4077 66.6234 17.1206 66.1635 17.6726 64.9216L22.3184 54.5952V66.4394H25.3312V54.5952C25.3312 53.4453 24.8711 52.8932 23.9052 52.5944C21.6285 51.9043 20.1105 52.5024 19.4205 54.0431L14.8439 64.2545L10.4281 54.0431C9.76096 52.5024 8.22024 51.9043 5.92018 52.5944C4.97743 52.8932 4.51733 53.4453 4.51733 54.5952V66.4394Z" fill="#005C87"/>
<path fill-rule="evenodd" clip-rule="evenodd" d="M27.8151 56.8032H30.828V63.3119C30.805 63.6798 30.9429 64.5078 32.5757 64.5307C33.4266 64.5537 39.0613 64.5307 39.1074 64.5307V56.7573H42.1202C42.1202 56.7573 42.1202 67.3595 42.1202 67.4056C42.1202 70.0274 38.8774 70.6025 37.3596 70.6255H27.8841V68.6244C27.9071 68.6244 37.3596 68.6244 37.3826 68.6244C39.3143 68.4177 39.0844 67.4516 39.0844 67.1296V66.3478H32.7138C29.7469 66.3246 27.8381 65.0138 27.8151 63.5187C27.8151 63.3808 27.8841 56.8491 27.8151 56.8032Z" fill="#005C87"/>
<path fill-rule="evenodd" clip-rule="evenodd" d="M92.4413 49.2597C90.6016 49.2135 89.1758 49.3975 87.9794 49.9036C87.6346 50.0415 87.0825 50.0415 87.0366 50.4784C87.2206 50.6625 87.2438 50.9615 87.4047 51.2144C87.6804 51.6745 88.1639 52.2954 88.6005 52.6174C89.0835 52.9853 89.5665 53.3534 90.0727 53.6753C90.9696 54.2274 91.9815 54.5492 92.8552 55.1013C93.3614 55.4231 93.867 55.8372 94.3732 56.1822C94.6263 56.3662 94.7871 56.6652 95.1093 56.7802C95.1093 56.7572 95.1093 56.7341 95.1093 56.7111C94.9485 56.5041 94.9021 56.2051 94.7413 55.9752C94.5114 55.7452 94.2815 55.5382 94.051 55.3081C93.3846 54.4113 92.5562 53.6292 91.6593 52.9853C90.9232 52.4793 89.3134 51.7895 89.0145 50.9383C89.0145 50.9383 88.9913 50.9156 88.9686 50.8926C89.4742 50.8465 90.0727 50.6625 90.5557 50.5246C91.3377 50.3175 92.0505 50.3635 92.8552 50.1565C93.2232 50.0645 93.5913 49.9495 93.9593 49.8345C93.9593 49.7656 93.9593 49.6966 93.9593 49.6275C93.5454 49.2135 93.2464 48.6616 92.8093 48.2706C91.6366 47.2588 90.3485 46.2696 89.0145 45.4418C88.3016 44.982 87.3815 44.6825 86.6227 44.2918C86.3469 44.1536 85.8866 44.0851 85.7258 43.8552C85.3119 43.349 85.082 42.682 84.783 42.084C84.116 40.8191 83.4717 39.416 82.8969 38.0825C82.483 37.1851 82.2299 36.2882 81.7242 35.4603C79.3552 31.5505 76.7794 29.1815 72.8232 26.8588C71.9727 26.3758 70.9608 26.1691 69.8794 25.916C69.3047 25.8928 68.7299 25.8469 68.1547 25.8237C67.7866 25.6629 67.4191 25.2258 67.0969 25.0191C65.7861 24.1907 62.4052 22.3969 61.4392 24.766C60.8181 26.2608 62.3593 27.733 62.8882 28.4918C63.2789 29.0206 63.7851 29.6186 64.0614 30.2165C64.2222 30.6077 64.2681 31.0217 64.4289 31.4356C64.7969 32.4474 65.1418 33.5742 65.6253 34.5175C65.8779 35.0005 66.1541 35.5062 66.4758 35.9433C66.6598 36.1964 66.982 36.3114 67.0511 36.7253C66.7289 37.1851 66.7057 37.8753 66.5217 38.45C65.6938 41.049 66.016 44.2691 67.1887 46.1779C67.5567 46.7526 68.4309 48.0175 69.6036 47.5346C70.6387 47.1206 70.4088 45.8098 70.7077 44.6598C70.7768 44.384 70.7309 44.2 70.8686 44.016C70.8686 44.0387 70.8686 44.0619 70.8686 44.0619C71.1907 44.7057 71.5124 45.3268 71.8114 45.9706C72.5248 47.098 73.7665 48.2706 74.8011 49.0526C75.3536 49.4666 75.7902 50.1794 76.4804 50.4325C76.4804 50.4096 76.4804 50.3866 76.4804 50.3635C76.4572 50.3635 76.4572 50.3635 76.434 50.3635C76.2959 50.1565 76.0892 50.0645 75.9052 49.9036C75.4913 49.4896 75.0315 48.9836 74.7093 48.5235C73.7433 47.2356 72.8923 45.8098 72.1335 44.3376C71.7655 43.6248 71.4433 42.8428 71.1449 42.1299C71.0067 41.8536 71.0067 41.4402 70.7768 41.3021C70.4315 41.8078 69.9258 42.2449 69.6727 42.866C69.2356 43.8552 69.1897 45.0737 69.0289 46.3387C68.9366 46.3619 68.983 46.3387 68.9366 46.3846C68.2005 46.2005 67.948 45.4418 67.6717 44.798C66.982 43.165 66.8665 40.5433 67.465 38.6572C67.6258 38.1742 68.316 36.6562 68.0397 36.1964C67.9016 35.7593 67.4418 35.5062 67.1887 35.1614C66.8897 34.7242 66.5675 34.1727 66.3608 33.6892C65.8088 32.4016 65.533 30.9758 64.9351 29.6876C64.6588 29.0897 64.1763 28.4686 63.7851 27.917C63.348 27.2959 62.865 26.8588 62.5201 26.1227C62.4052 25.8696 62.2443 25.4562 62.4284 25.1799C62.4742 24.9959 62.566 24.9273 62.75 24.8809C63.049 24.6278 63.9 24.95 64.199 25.0882C65.05 25.433 65.7629 25.7547 66.4758 26.2382C66.798 26.4681 67.1428 26.9047 67.5567 27.0196C67.7175 27.0196 67.8789 27.0196 68.0397 27.0196C68.7758 27.1809 69.6036 27.066 70.2938 27.2727C71.5124 27.6639 72.6165 28.2387 73.6057 28.8598C76.6181 30.7686 79.1021 33.4825 80.7809 36.7253C81.0567 37.2541 81.1717 37.7371 81.4248 38.2892C81.9078 39.416 82.5062 40.566 82.9887 41.6701C83.4717 42.7511 83.932 43.8552 84.6217 44.7521C84.967 45.2346 86.3469 45.4876 86.9675 45.7407C87.4273 45.948 88.1407 46.132 88.5547 46.3846C89.3366 46.8675 90.1186 47.4196 90.8541 47.9485C91.2222 48.2248 92.3722 48.7996 92.4413 49.2597Z" fill="#005C87"/>
<path fill-rule="evenodd" clip-rule="evenodd" d="M68.983 29.2737C68.5917 29.2737 68.316 29.3196 68.0397 29.3887C68.0397 29.3887 68.0397 29.4119 68.0397 29.4345C68.0629 29.4345 68.0629 29.4345 68.0855 29.4345C68.2696 29.8026 68.5917 30.0557 68.8216 30.3773C69.0057 30.7454 69.1665 31.1134 69.3505 31.4814C69.3737 31.4588 69.3964 31.4356 69.3964 31.4356C69.7185 31.2057 69.8794 30.8376 69.8794 30.2856C69.7417 30.1247 69.7185 29.9634 69.6036 29.8026C69.466 29.5727 69.1665 29.4577 68.983 29.2737Z" fill="#005C87"/>
<path fill-rule="evenodd" clip-rule="evenodd" d="M44.4202 66.4396H53.0676C54.0794 66.4396 55.0454 66.2327 55.8274 65.8647C57.1382 65.2667 57.7593 64.4619 57.7593 63.4037V61.1959C57.7593 60.345 57.0465 59.54 55.6207 58.9881C54.8846 58.7122 53.9645 58.5512 53.0676 58.5512H49.4339C48.2151 58.5512 47.64 58.1831 47.4789 57.3781C47.456 57.2863 47.456 57.1942 47.456 57.1022V55.7453C47.456 55.6762 47.456 55.5842 47.4789 55.4924C47.64 54.8714 47.962 54.7103 49.0199 54.5953C49.1119 54.5953 49.2269 54.5953 49.2957 54.5953H57.8743V52.5945H49.4568C48.238 52.5945 47.5941 52.6634 47.019 52.8474C45.2482 53.3993 44.4661 54.2732 44.4661 55.8141V57.5623C44.4661 58.919 45.9841 60.0689 48.56 60.345C48.8358 60.368 49.1349 60.368 49.4339 60.368H52.5387C52.6537 60.368 52.7686 60.368 52.8609 60.3911C53.8037 60.4829 54.2176 60.644 54.4939 60.9889C54.6774 61.173 54.7238 61.3338 54.7238 61.541V63.2888C54.7238 63.4957 54.5856 63.7718 54.3099 64.0018C54.0336 64.2317 53.5965 64.3928 53.0217 64.4157C52.9068 64.4157 52.8377 64.4387 52.7227 64.4387H44.4202V66.4396Z" fill="#E3820F"/>
<path fill-rule="evenodd" clip-rule="evenodd" d="M76.4805 62.9668C76.4805 65.0138 78.0212 66.1637 81.1032 66.3936C81.4021 66.4166 81.6779 66.4396 81.9769 66.4396H89.7965V64.4387H81.9078C80.1604 64.4387 79.4928 64.0018 79.4928 62.9438V52.5945H76.4805V62.9668Z" fill="#E3820F"/>
<path fill-rule="evenodd" clip-rule="evenodd" d="M59.6681 63.0591V55.9295C59.6681 54.1125 60.9562 53.0085 63.4629 52.6636C63.7392 52.6406 64.015 52.6177 64.2681 52.6177H69.9717C70.2707 52.6177 70.5238 52.6406 70.8227 52.6636C73.3294 53.0085 74.5944 54.1125 74.5944 55.9295V63.0591C74.5944 64.531 74.0655 65.313 72.8232 65.8419L75.7676 68.5097H72.2949L69.9026 66.348L67.4877 66.4859H64.2681C63.7392 66.4859 63.1408 66.4168 62.5202 66.2559C60.6114 65.727 59.6681 64.715 59.6681 63.0591ZM62.9109 62.8982C62.9109 62.99 62.9573 63.082 62.9799 63.1972C63.1408 64.0249 63.9232 64.485 65.1191 64.485H67.8325L65.349 62.2311H68.8217L71.0068 64.2089C71.4207 63.979 71.6732 63.657 71.7655 63.2431C71.7887 63.1511 71.7887 63.0361 71.7887 62.944V56.1134C71.7887 56.0215 71.7887 55.9295 71.7655 55.8375C71.6047 55.0554 70.8227 54.6185 69.6495 54.6185H65.1191C63.7851 54.6185 62.9109 55.1934 62.9109 56.1134V62.8982Z" fill="#E3820F"/>
<path fill-rule="evenodd" clip-rule="evenodd" d="M91.1763 66.463H91.6134V64.7839H92.1882V64.439H90.5784V64.7839H91.1763V66.463ZM94.5114 66.463H94.9253V64.439H94.3041L93.7985 65.8189L93.2464 64.439H92.6485V66.463H93.0392V64.922H93.0624L93.6371 66.463H93.9361L94.5114 64.922V66.463Z" fill="#E3820F"/>
</g>
</g>
<defs>
<clipPath id="clip0_108_491">
<rect width="100" height="100" fill="white"/>
</clipPath>
</defs>
</svg>
