<svg width="256" height="230" viewBox="0 0 256 230" fill="none" xmlns="http://www.w3.org/2000/svg">
<path fill-rule="evenodd" clip-rule="evenodd" d="M193.751 77.3819C196.252 78.1039 198.681 78.8672 201.025 79.674C225.429 88.0752 241.199 101.235 241.199 114.842C241.199 129.033 224.346 142.907 198.442 151.49C197.073 151.944 195.67 152.38 194.24 152.803C194.75 154.854 195.205 156.869 195.595 158.842C200.709 184.673 196.77 205.904 184.651 212.92C172.916 219.713 153.95 213.04 134.746 196.515C132.719 194.769 130.68 192.908 128.638 190.942C127.062 192.465 125.49 193.918 123.923 195.288C104.097 212.617 83.7371 219.808 71.6056 212.813C59.8606 206.038 56.17 186.275 60.8958 161.384C61.3941 158.759 61.9878 156.066 62.6703 153.319C60.5676 152.715 58.5273 152.08 56.5609 151.408C31.6438 142.891 15.243 128.846 15.243 114.842C15.243 101.284 30.5209 88.2123 54.4433 79.8719C57.1171 78.94 59.9116 78.064 62.8063 77.2423C62.1736 74.702 61.6141 72.2036 61.1355 69.757C56.1792 44.4273 59.6667 24.1854 71.4431 17.3681C83.7243 10.2584 104.177 17.8934 124.582 36.0109C125.827 37.1165 127.075 38.2724 128.326 39.4686C130.202 37.6607 132.08 35.9357 133.952 34.3063C153.422 17.3625 172.7 10.2749 184.487 17.0725C196.781 24.1617 200.381 45.6934 194.875 72.4208C194.539 74.0485 194.162 75.7043 193.751 77.3819ZM191.611 143.515C192.903 143.132 194.171 142.737 195.406 142.328C217.772 134.917 231.547 123.577 231.547 114.843C231.547 106.642 218.792 95.9995 197.883 88.8013C195.721 88.0568 193.477 87.3514 191.166 86.6825C188.386 95.6769 184.676 105.18 180.169 114.89C184.892 124.836 188.751 134.462 191.611 143.515ZM187.212 190.539C188.71 182.466 188.387 172.139 186.126 160.717C185.773 158.934 185.364 157.11 184.903 155.251C175.544 157.415 165.224 158.999 154.301 159.968C148.09 168.959 141.727 177.054 135.36 184.017C137.263 185.848 139.159 187.578 141.042 189.198C157.465 203.33 172.693 208.688 179.814 204.566C183.16 202.629 185.866 197.793 187.212 190.539ZM76.4288 204.45C79.7783 206.382 85.3194 206.311 92.2766 203.854C100.019 201.12 108.804 195.683 117.571 188.019C118.999 186.771 120.435 185.446 121.876 184.055C115.278 176.974 108.731 168.888 102.479 160.091C91.5298 159.203 81.2853 157.73 72.0291 155.683C71.394 158.243 70.843 160.747 70.3801 163.185C66.3384 184.471 69.3014 200.339 76.4288 204.45ZM33.3291 128.273C39.566 133.614 48.6649 138.508 59.6828 142.274C61.475 142.886 63.3376 143.468 65.2601 144.02C68.1153 134.715 71.8771 124.946 76.4111 115.077C71.935 105.353 68.2259 95.7372 65.3985 86.5397C62.7017 87.3059 60.1031 88.1216 57.6207 88.9871C37.162 96.1201 24.8954 106.615 24.8954 114.843C24.8954 118.709 27.7248 123.474 33.3291 128.273ZM76.2792 25.7223C69.1824 29.8304 66.3621 46.2015 70.6086 67.9034C71.053 70.1754 71.5738 72.4993 72.1618 74.8647C81.5146 72.7459 91.687 71.1636 102.314 70.1787C108.511 61.4332 114.998 53.4077 121.563 46.3584C120.429 45.2757 119.298 44.2291 118.172 43.2293C100.554 27.5857 83.8385 21.346 76.2792 25.7223ZM161.205 80.6704C163.545 84.3381 165.84 88.1087 168.076 91.9706C170.359 95.9142 172.527 99.8376 174.576 103.729C177.434 97.0391 179.861 90.5135 181.808 84.2721C175.322 82.7916 168.414 81.5818 161.205 80.6704ZM141.626 69.3091C137.24 63.4659 132.781 58.0805 128.329 53.2569C123.807 58.136 119.31 63.5142 114.92 69.3031C119.312 69.0979 123.753 68.9918 128.221 68.9918C132.732 68.9918 137.206 69.1004 141.626 69.3091ZM81.949 103.722C83.9664 99.8123 86.094 95.9102 88.3274 92.0374C90.5669 88.1542 92.8811 84.355 95.2541 80.6535C88.0906 81.5476 81.2158 82.7273 74.7689 84.17C76.7332 90.4998 79.138 97.0552 81.949 103.722ZM74.6358 146.373C81.081 147.775 88.0592 148.894 95.4605 149.72C93.0263 145.943 90.6546 142.07 88.3657 138.116C86.1186 134.235 83.9825 130.331 81.9598 126.424C79.0893 133.234 76.6315 139.93 74.6358 146.373ZM115.001 160.839C119.458 166.712 124.021 172.172 128.596 177.109C133.018 172.24 137.461 166.771 141.861 160.792C137.38 160.992 132.827 161.095 128.221 161.095C123.738 161.095 119.327 161.009 115.001 160.839ZM182.256 145.954C180.234 139.621 177.689 132.961 174.668 126.077C172.602 130.061 170.416 134.058 168.115 138.049C165.839 141.995 163.524 145.83 161.178 149.547C168.631 148.653 175.704 147.449 182.256 145.954ZM148.914 150.716C152.595 145.198 156.221 139.351 159.753 133.227C163.281 127.11 166.528 120.986 169.462 114.937C166.519 108.991 163.264 102.927 159.721 96.8075C156.218 90.7556 152.571 84.9394 148.834 79.424C142.116 78.9116 135.216 78.6445 128.221 78.6445C121.257 78.6445 114.366 78.9096 107.646 79.4176C103.852 84.9736 100.179 90.8087 96.6896 96.8598L96.6904 96.8586C93.2102 102.894 89.997 108.997 87.0786 115.074C89.9978 121.137 93.2186 127.234 96.7189 133.28C100.229 139.342 103.934 145.206 107.763 150.797C114.35 151.224 121.19 151.443 128.221 151.443C135.281 151.443 142.209 151.196 148.914 150.716ZM185.421 70.4727C190.175 47.3965 187.232 29.7986 179.666 25.4352C172.562 21.3388 156.971 27.0705 140.289 41.5879C138.563 43.0909 136.829 44.6836 135.092 46.354C141.551 53.3128 147.985 61.3508 154.193 70.1923C164.851 71.1922 175.031 72.8018 184.405 74.9648C184.776 73.4449 185.118 71.9451 185.421 70.4727Z" fill="#53C1DE"/>
<path d="M128.221 94.6653C139.365 94.6653 148.398 103.699 148.398 114.842C148.398 125.986 139.365 135.02 128.221 135.02C117.078 135.02 108.044 125.986 108.044 114.842C108.044 103.699 117.078 94.6653 128.221 94.6653Z" fill="#53C1DE"/>
</svg>
