<svg width="24" height="24" viewBox="0 0 24 24" fill="none" xmlns="http://www.w3.org/2000/svg">
<path fill-rule="evenodd" clip-rule="evenodd" d="M12.2891 6C9.54516 6 7.83065 7.36371 7.14435 10.0911C8.17339 8.72742 9.37379 8.21613 10.7456 8.55685C11.5282 8.75121 12.0879 9.31573 12.7069 9.94073C13.7157 10.9585 14.8835 12.1363 17.4335 12.1363C20.177 12.1363 21.8919 10.7726 22.5778 8.04556C21.5492 9.40927 20.3488 9.92056 18.977 9.57944C18.194 9.38508 17.6343 8.82056 17.0153 8.19597C16.0065 7.17742 14.8391 6 12.2891 6ZM7.14435 12.1363C4.40081 12.1363 2.68589 13.5 2 16.2274C3.02903 14.8637 4.22944 14.3524 5.60081 14.6931C6.38387 14.8875 6.94355 15.452 7.5625 16.077C8.57137 17.0948 9.73871 18.2726 12.2891 18.2726C15.0327 18.2726 16.7476 16.9093 17.4335 14.1819C16.4044 15.5456 15.204 16.0569 13.8323 15.7161C13.0496 15.5214 12.4899 14.9569 11.871 14.3323C10.8621 13.3145 9.69436 12.1363 7.14435 12.1363Z" fill="#38BDF8"/>
</svg>
